<svg xmlns="http://www.w3.org/2000/svg" viewBox="0 0 32 32">
  <defs>
    <linearGradient id="g" x1="0%" y1="0%" x2="100%" y2="100%">
      <stop offset="0%" stop-color="#2ea043"/>
      <stop offset="100%" stop-color="#3fb950"/>
    </linearGradient>
  </defs>
  <rect width="32" height="32" rx="6" fill="#0d1117"/>
  <!-- Simplified: audio bar + arrow + bracket -->
  <line x1="6" y1="11" x2="6" y2="21" stroke="url(#g)" stroke-width="2.5" stroke-linecap="round"/>
  <path d="M9.5 12 Q12 16 9.5 20" stroke="url(#g)" stroke-width="1.8" stroke-linecap="round" fill="none" opacity="0.7"/>
  <line x1="14" y1="16" x2="20" y2="16" stroke="#3fb950" stroke-width="1.5" stroke-linecap="round" opacity="0.8"/>
  <polyline points="18.5,13.5 21,16 18.5,18.5" stroke="#3fb950" stroke-width="1.5" stroke-linecap="round" stroke-linejoin="round" fill="none" opacity="0.8"/>
  <path d="M24 10 Q22.5 10 22.5 12.5 L22.5 14.5 Q22.5 16 21 16 Q22.5 16 22.5 17.5 L22.5 19.5 Q22.5 22 24 22" stroke="url(#g)" stroke-width="1.8" stroke-linecap="round" fill="none"/>
  <path d="M27 10 Q28.5 10 28.5 12.5 L28.5 14.5 Q28.5 16 30 16 Q28.5 16 28.5 17.5 L28.5 19.5 Q28.5 22 27 22" stroke="url(#g)" stroke-width="1.8" stroke-linecap="round" fill="none"/>
</svg>
